<?xml version="1.0" encoding="UTF-8"?>
<svg width="489px" height="96px" viewBox="0 0 489 96" xmlns="http://www.w3.org/2000/svg" xmlns:xlink="http://www.w3.org/1999/xlink" version="1.1">
 <!-- Generated by Pixelmator Pro 1.6.3 -->
 <g id="Page-1">
  <g id="Lendesk-Spotlight">
   <g id="Lendesk_19_">
    <path id="Path" d="M427.034 42.61 L438.492 29.169 428.203 14.119 409.644 14.119 Z" fill="#f19c22" fill-opacity="1" stroke="none"/>
    <path id="Path-1" d="M461.203 2.508 L427.034 42.61 434.492 55.034 479.61 2.508 Z" fill="#fcc015" fill-opacity="1" stroke="none"/>
    <path id="Shape" d="M241.22 14.119 L215.39 14.119 215.39 81.085 240.831 81.085 C264.949 81.085 279.017 66.729 279.017 47.407 L279.017 47.22 C279.017 27.915 265.136 14.119 241.22 14.119 M259.983 47.712 C259.983 58.525 252.61 64.644 241.525 64.644 L233.966 64.644 233.966 30.576 241.525 30.576 C252.61 30.576 259.983 36.797 259.983 47.508 Z" fill="#1d86c8" fill-opacity="1" stroke="none"/>
    <path id="Path-2" d="M186.831 49.525 L159.288 14.119 141.966 14.119 141.966 81.102 160.339 81.102 160.339 44.356 188.949 81.102 205.22 81.102 205.22 14.119 186.831 14.119 Z" fill="#1d86c8" fill-opacity="1" stroke="none"/>
    <path id="Path-3" d="M434.492 55.034 L451.831 81.085 474.136 81.085 446.729 40.797 Z" fill="#1d86c8" fill-opacity="1" stroke="none"/>
    <path id="Path-4" d="M37.186 14.119 L18.644 14.119 18.644 81.102 69.627 81.102 69.627 64.814 37.186 64.814 Z" fill="#1d86c8" fill-opacity="1" stroke="none"/>
    <path id="Path-5" d="M95.61 54.695 L127.763 54.695 127.763 40.051 95.61 40.051 95.61 29.915 131.102 29.915 131.102 14.119 77.237 14.119 77.237 81.102 131.593 81.102 131.593 65.305 95.61 65.305 Z" fill="#1d86c8" fill-opacity="1" stroke="none"/>
    <path id="Path-6" d="M409.644 14.119 L409.661 14.119 409.644 14.119 409.644 81.085 428.153 81.085 428.102 62.814 434.492 55.034 427.034 42.61" fill="#1d86c8" fill-opacity="1" stroke="none"/>
    <path id="Path-7" d="M378.322 39.39 C369.051 37.271 366.746 35.932 366.746 32.881 L366.746 32.678 C366.746 30.288 368.949 28.373 373.441 28.373 379.373 28.373 386.068 30.678 392.186 34.983 L401.475 21.864 C394.203 16.034 385.305 12.966 373.932 12.966 357.864 12.966 348 21.949 348 34.39 L348 34.593 C348 48.373 359 52.39 373.254 55.644 382.356 57.746 384.542 59.288 384.542 62.051 L384.542 62.254 C384.542 65.119 381.864 66.831 376.898 66.831 369.153 66.831 361.78 64.068 355.186 58.797 L344.847 71.136 C353.068 78.508 364.373 82.237 376.22 82.237 392.475 82.237 403.288 74.102 403.288 60.424 L403.288 60.22 C403.288 47.712 393.729 42.746 378.322 39.39" fill="#1d86c8" fill-opacity="1" stroke="none"/>
    <path id="Path-8" d="M303.085 54.695 L335.22 54.695 335.22 40.051 303.085 40.051 303.085 29.915 338.576 29.915 338.576 14.119 284.712 14.119 284.712 81.102 339.068 81.102 339.068 65.305 303.085 65.305 Z" fill="#1d86c8" fill-opacity="1" stroke="none"/>
   </g>
  </g>
 </g>
</svg>
