<?xml version="1.0" encoding="utf-8"?>
<!-- Generator: Adobe Illustrator 19.2.1, SVG Export Plug-In . SVG Version: 6.00 Build 0)  -->
<svg version="1.1" id="layer" xmlns="http://www.w3.org/2000/svg" xmlns:xlink="http://www.w3.org/1999/xlink" x="0px" y="0px"
	 viewBox="0 0 652 652" style="enable-background:new 0 0 652 652;" xml:space="preserve">
<style type="text/css">
	.st0{fill-rule:evenodd;clip-rule:evenodd;fill:#000;}
	.st1{fill:#000;}
</style>
<path class="st0" d="M237.3,378c-7.7,0-10.9-3.8-10.9-7.5c0-4.2,2.7-8.1,11.6-8.1c5,0,8.3,1.5,9.2,4.1h6.3c-0.9-4.9-7.6-7.1-16-7.1
	c-11.8,0-17.5,4.9-17.5,11.1c0,6.1,6,10.5,17.4,10.5c9.3,0,15-3,16.4-8h-6.2C246.7,376.1,243.2,378,237.3,378"/>
<path class="st1" d="M298.1,359.4c-11.8,0-18,4.8-18,10.8c0,6,6.2,10.8,18,10.8c11.8,0,18-4.7,18-10.8
	C316.2,364.1,309.9,359.4,298.1,359.4 M298.1,378c-6.4,0-11.5-2.8-11.5-7.8c0-5,5.2-7.8,11.5-7.8c6.4,0,11.6,2.8,11.6,7.8
	C309.7,375.2,304.5,378,298.1,378"/>
<path class="st1" d="M362.8,359.4c-5.3,0-9.5,1.2-12.1,3.7h-0.1v-3.3h-5.7v20.7h6.1v-11.7c0-3.7,3.6-6.5,11-6.5
	c4.7,0,7.5,1.6,7.5,4.1v14h6.1v-13.6C375.6,362.5,372.6,359.4,362.8,359.4"/>
<path class="st0" d="M414.8,353.6h-6.1v6.2h-6.3v3h6.3V376c0,3.8,2.5,4.5,8.8,4.5h4.7v-3h-2.8c-3.8,0-4.6-0.3-4.6-1.8v-12.9h7.4v-3
	h-7.4V353.6z"/>
<path class="st1" d="M456.2,364.2h-0.1v-4.3h-5.7v20.7h6.1v-9.2c0-5.2,3.6-8.4,13.4-8.4v-3.6C463.3,359.2,459.2,360.9,456.2,364.2"
	/>
<path class="st1" d="M510.7,359.4c-11.8,0-18,4.8-18,10.8c0,6,6.3,10.8,18,10.8c11.8,0,18-4.7,18-10.8
	C528.8,364.1,522.5,359.4,510.7,359.4 M510.7,378c-6.4,0-11.6-2.8-11.6-7.8c0-5,5.2-7.8,11.6-7.8c6.4,0,11.6,2.8,11.6,7.8
	C522.3,375.2,517.1,378,510.7,378"/>
<rect x="557.9" y="353" class="st1" width="6.1" height="27.6"/>
<path class="st1" d="M612,368.6c-5.7-0.8-12.1-1.2-12.1-3.6c0-2.1,4.3-2.6,7.9-2.6c4,0,8.2,0.8,8.6,3.5h6.1c-0.5-5-7.1-6.5-15.2-6.5
	c-6.5,0-13.8,1.7-13.8,5.9c0,4,6.1,5.1,12.1,5.8c6.1,0.8,12.1,1.2,12.1,3.9c0,2.6-5.1,3.1-9,3.1c-5,0-9.8-0.9-10-4h-6.1
	c0.4,5.1,7.4,7,15.7,7c7.5,0,15.8-1.6,15.8-6.5C624.1,370.5,618.1,369.3,612,368.6"/>
<path class="st1" d="M555.1,273.7c1.6-0.3,2.5-1.2,2.5-2.7c0-2-1.3-2.9-4-2.9h-3.8h-0.3v9.7h2.2v-3.9h1.2c0.1,0.2,2.6,3.9,2.6,3.9
	h2.6C558,277.8,555.5,274.2,555.1,273.7 M553.2,272.1h-1.6v-2.1h1.7c1.4,0,2,0.3,2,1C555.3,271.9,554.7,272.1,553.2,272.1"/>
<path class="st1" d="M553.5,263.7c-5.8,0-10.1,4-10.1,9.3c0,5.4,4.2,9.3,10.1,9.3c5.7,0,10-4,10-9.3
	C563.5,267.6,559.2,263.7,553.5,263.7 M553.5,280.1c-4.4,0-7.4-3-7.4-7.2c0-4.2,3.1-7.2,7.4-7.2c4.3,0,7.3,3,7.3,7.2
	C560.8,277.1,557.7,280.1,553.5,280.1"/>
<polygon class="st1" points="484.5,266.5 467.5,348.8 490.3,348.8 507.3,266.5 "/>
<path class="st1" d="M537.5,287.5c-14.8,0-35.8,9-35.8,36.4c0,14.5,8.5,26.4,29.6,26.4c25.8,0,30.2-14.9,31.7-18.9h-21.8
	c-1.1,2.1-4,4.3-9,4.3c-7.1,0-9.3-5.3-9.3-11.6h42.5c1-3.7,1.2-7.2,1.2-10.4C566.7,294.9,550.7,287.5,537.5,287.5 M545.2,312.2H525
	c1.7-6.3,5.7-10,11.8-10c5.7,0,8.6,3.6,8.6,8.1C545.4,310.8,545.3,311.6,545.2,312.2"/>
<path class="st1" d="M192.8,336c-7.7,0.3-15.5,0.6-23.6,0.8c-0.2,1.3-0.3,2.7-0.3,3.9c0,3.7,0.1,6,1,8.1h24.1
	C192.8,345.6,192.7,341,192.8,336"/>
<path class="st1" d="M149.1,320.1H160c4.4,0,7.2,1.3,9,4c7.8,0,15.7-0.9,23.8-1.1c-0.5-5.7-2.4-10.4-8.3-12v-0.2
	c11.8-1.9,19.2-10.7,19.2-22.7c0-17.4-11.6-21.6-26.8-21.6h-41.6l-11.6,56.8c8,0.4,16.3,0.6,24.7,0.8L149.1,320.1z M156.2,286.1
	h13.7c6.6,0,8.5,3.9,8.5,7.1c0,5-3.9,9.2-12.3,9.2h-13.3L156.2,286.1z"/>
<path class="st0" d="M120.8,336.8c-29.1-0.6-99.7-15-84-30.5c8.9-8.8,28.4-17.6,53.7-23.9l0.6-2.8c0,0-43.8,8.6-60.8,23.4
	c-25.4,22.1,32.9,42.9,88.1,45.8l0,0c0,0,17,0.4,24.8,0l1.1-5.3c0.4-1.8,0.7-3.2,0.7-3.2l0.7-3.2
	C137.7,337.1,120.8,336.8,120.8,336.8"/>
<path class="st1" d="M266.3,318.6c0.1-1.7,0.2-3.4,0.2-5c0-18.8-16-26.1-29.2-26.1c-14.6,0-35.1,8.7-35.7,35.3
	C222.5,322,244.2,320.7,266.3,318.6 M236.6,302.1c5.7,0,8.6,3.6,8.6,8.1c0,0.6-0.1,1.4-0.2,2h-20.2
	C226.4,305.8,230.5,302.1,236.6,302.1"/>
<path class="st1" d="M232.1,335.6c-2.1-0.1-3.8-0.5-5.1-1.4c-7.5,0.5-15.1,1-23.3,1.3c3.8,8.7,12.4,14.7,27.4,14.7
	c24.9,0,30.9-15.3,32.6-19.9c-8,1.1-15.7,2-23.5,2.8C239.1,335,236.1,335.8,232.1,335.6"/>
<path class="st1" d="M306.4,266.5h-22.8L273,318c7.7-0.8,15.5-1.7,23.3-2.6L306.4,266.5z"/>
<path class="st1" d="M294.1,326.2c-8.3,1.5-16.1,2.8-23.6,4l-3.9,18.6h22.8L294.1,326.2z"/>
<polygon class="st0" points="338,266.5 315.3,266.5 311.9,282.6 334.7,282.6 "/>
<path class="st0" d="M298.3,348.8H321l5.7-28.6c-8.4,1.8-16.3,3.3-23.7,4.8L298.3,348.8z"/>
<path class="st0" d="M328.9,310.7l4.5-21.7h-22.8l-5.2,25.2C313.3,313.1,321.1,312,328.9,310.7"/>
<path class="st0" d="M368.3,301c1.9,0.1,3.8,0.4,5.2,1.3c8-1.8,15.4-3.6,22.2-5.4c-4.6-8.4-18.5-9.2-27.4-9.4
	c-12.7-0.3-27.6,3.6-30.9,21.7l9.1-1.4c2.4-0.4,4.9-0.9,7.3-1.3c2-0.4,3.9-0.8,5.9-1.2C360.2,301.1,364.8,300.8,368.3,301"/>
<path class="st1" d="M397.3,303.4c0-0.2,0-0.3,0-0.5c-7.9,2.3-15.4,4.3-22.3,5.8c-2.2,4.6-10.6,4-16.1,4.4
	c-3.7,0.3-7.1,0.7-10.2,1.3c-0.3,0.1-0.6,0.1-0.9,0.2c-10.8,2.4-17.7,7.7-17.7,19.8c0,11.4,9.1,15.9,19.3,15.9
	c6.7,0,14.4-2.4,18.4-7.2h0.2c-0.1,1.9,0.2,3.9,0.8,5.8H391c-0.9-2.8-0.5-0.7-0.9-5.3C390.1,339.6,397.3,312.7,397.3,303.4
	 M360,336.8c-3.7,0-7.3-1-7.3-5.2c0-4.4,3.6-6.3,7.4-6.7c4.1-0.3,8.4-0.8,12.1-2.7C370.8,331.2,367.7,336.8,360,336.8"/>
<path class="st1" d="M436.8,266.5h-22.8l-5.3,25.7c9.1-2.3,17.2-5,24.2-6.9L436.8,266.5z"/>
<path class="st1" d="M468.2,311.6c0-16.6-8.9-22.4-16.5-23.7c0.1,0,0.1,0,0.2,0c12-5.6,21.1-11.3,21.1-11.3l0.3-2.2
	c-4.2,1.9-11.3,5-16.6,7.2c-11.1,4.6-48.8,18.2-49.6,18.4l-10.1,48.9h21.6l1.7-7.7h0.2c3.2,7.8,10.8,9.2,17.7,9.2
	C463.4,350.3,468.2,322.2,468.2,311.6 M432.4,333.7c-5.1,0-7.7-4.6-7.7-9.2c0-7.9,3-20.4,12.3-20.4c5.7-0.2,8.5,3.8,8.5,9.8
	C445.5,322.6,441.5,333.7,432.4,333.7 M450.6,287.7c-0.4-0.1-0.9-0.1-1.3-0.1C449.6,287.5,450.1,287.6,450.6,287.7"/>
</svg>
